<svg width="314" height="36" viewBox="0 0 314 36" fill="none" xmlns="http://www.w3.org/2000/svg">
<rect width="314" height="36" fill="black"/>
<rect width="29.567" height="2.9567" transform="matrix(0.707093 0.707121 -0.707093 0.707121 286.094 7)" fill="white"/>
<rect width="29.567" height="2.9567" transform="matrix(0.707093 -0.707121 0.707093 0.707121 284 27.9074)" fill="white"/>
<rect x="42" y="29" width="218" height="1" fill="white" fill-opacity="0.85"/>
<rect width="9.15446" height="2.28862" transform="matrix(-0.718931 0.695081 0.718931 0.695081 8.58105 22.0461)" fill="white"/>
<path fill-rule="evenodd" clip-rule="evenodd" d="M18.1246 25.1741C12.0376 25.1741 7.32763 20.2726 7.32763 14.5105C7.32763 8.74829 12.0376 3.84682 18.1246 3.84682C24.2115 3.84682 28.9215 8.74829 28.9215 14.5105C28.9215 20.2726 24.2115 25.1741 18.1246 25.1741ZM18.1246 27.84C10.7629 27.84 4.79502 21.8722 4.79502 14.5105C4.79502 7.14875 10.7629 1.18091 18.1246 1.18091C25.4863 1.18091 31.4541 7.14875 31.4541 14.5105C31.4541 21.8722 25.4863 27.84 18.1246 27.84Z" fill="white"/>
</svg>
